PathFileType	4	(X/Y/Z)	./resultDataOpenSim/trcMotMarkerGrf/sub09/qtm-15-01.trc
DataRate	CameraRate	NumFrames	NumMarkers	Units	OrigDataRate	OrigDataStartFrame	OrigNumFrames
250.000000	250.000000	13	24	m	250.000000	382	508
Frame#	Time	L.Toe.Tip			R.Toe.Tip			L.Ankle.Lat			R.Ankle.Lat			L.Ankle.Med			R.Ankle.Med			L.Heel			R.Heel			L.Knee.Lat			R.Knee.Lat			L.Knee.Med			R.Knee.Med			L.Thigh.Upper			R.Thigh.Upper			L.ASIS			R.ASIS			V.Sacral			L.Acromium			R.Acromium			C7			L.Elbow			R.Elbow			L.Wrist.Lat			R.Wrist.Lat
		X1	Y1	Z1	X2	Y2	Z2	X3	Y3	Z3	X4	Y4	Z4	X5	Y5	Z5	X6	Y6	Z6	X7	Y7	Z7	X8	Y8	Z8	X9	Y9	Z9	X10	Y10	Z10	X11	Y11	Z11	X12	Y12	Z12	X13	Y13	Z13	X14	Y14	Z14	X15	Y15	Z15	X16	Y16	Z16	X17	Y17	Z17	X18	Y18	Z18	X19	Y19	Z19	X20	Y20	Z20	X21	Y21	Z21	X22	Y22	Z22	X23	Y23	Z23	X24	Y24	Z24

382	1.524	0.97136649	0.14462184	-0.13013029	1.1049914	0.039455478	0.0069365116	0.89066648	0.27350827	-0.15635129	0.96397562	0.065668071	0.055038033	0.91644436	0.25876481	-0.060790666	0.97192717	0.10477017	-0.03761789	0.81005417	0.28888967	-0.10468731	0.88837909	0.050427156	0.012810578	1.2050665	0.5278499	-0.17444009	1.1075353	0.50100148	0.10618876	1.2106612	0.51657898	-0.048674648	1.0736892	0.49300029	-0.014780295	1.012971	0.89120662	-0.19046392	1.0304912	0.90233232	0.18256675	1.0909604	0.97703099	-0.13648363	1.1125596	0.98546168	0.10246844	0.93978027	1.0439433	-0.0053031089	1.1136111	1.4297977	-0.19154711	1.1222178	1.4455924	0.13990883	1.0499428	1.489375	-0.022107122	0.94275044	1.1042917	-0.2356296	0.95600046	1.1324238	0.25689281	1.0524791	0.86651727	-0.28553965	1.0764423	0.88715784	0.28107308
383	1.528	0.98826008	0.14298956	-0.13092506	1.1051601	0.03954348	0.0069533132	0.90441305	0.26957898	-0.15720153	0.96414493	0.066376349	0.054925804	0.93089919	0.25535552	-0.061791973	0.97253467	0.10551021	-0.037591246	0.82317983	0.28297301	-0.10561842	0.88882311	0.051291695	0.0127605	1.2136514	0.53077487	-0.17453283	1.1083691	0.50142438	0.1066736	1.2194396	0.5196574	-0.048752003	1.075266	0.49349623	-0.014643654	1.0186337	0.89275825	-0.19107482	1.034708	0.90341528	0.18217916	1.0960592	0.97863124	-0.1366637	1.1172324	0.98664765	0.10231949	0.94506609	1.0450616	-0.0059676288	1.1177433	1.4311582	-0.19192365	1.1265678	1.4469616	0.13953125	1.0542436	1.4906931	-0.022427403	0.9469134	1.1056856	-0.23580706	0.96114613	1.1332037	0.25651869	1.0562091	0.86784975	-0.2862566	1.0829242	0.88850583	0.27994479
384	1.532	1.0052665	0.14128057	-0.13165645	1.1053792	0.039610796	0.0069291153	0.91826447	0.2655095	-0.15801119	0.96432012	0.067078932	0.054809768	0.94522013	0.25183442	-0.062694571	0.97314639	0.10625645	-0.037526426	0.83651212	0.27688959	-0.10654874	0.88923072	0.052106431	0.012639911	1.2220466	0.53358396	-0.17461858	1.1094589	0.50176623	0.10714719	1.2278467	0.52263573	-0.048862675	1.0768378	0.49399252	-0.014557157	1.0241889	0.8942541	-0.19165723	1.0389675	0.90447346	0.18179124	1.1011625	0.9801675	-0.13683229	1.1219157	0.98779019	0.10217058	0.95021072	1.0461283	-0.0065720868	1.1218931	1.4324591	-0.19229226	1.1309083	1.4482733	0.13915907	1.0585298	1.4919512	-0.022743254	0.95110571	1.107019	-0.23599456	0.96627741	1.1339248	0.2561408	1.0599608	0.86912545	-0.28696891	1.0894224	0.88980869	0.27879885
385	1.536	1.022388	0.13947964	-0.13230248	1.1055972	0.039620759	0.0068811816	0.93224001	0.26130056	-0.15879272	0.96450938	0.067772321	0.054689931	0.95944004	0.24820565	-0.063505857	0.97364877	0.10700329	-0.037499678	0.85011303	0.27063769	-0.10753759	0.88952854	0.052942121	0.0123998	1.23026	0.5362684	-0.17470268	1.1107726	0.50203621	0.10759864	1.2360475	0.52551753	-0.048975075	1.078417	0.4944639	-0.01449726	1.0297247	0.89569591	-0.19222368	1.0432472	0.90549821	0.18140337	1.1062778	0.98164337	-0.13699325	1.1266089	0.98888417	0.10202419	0.95519796	1.0471658	-0.007127196	1.1260689	1.433702	-0.19264928	1.1352284	1.4495332	0.13879829	1.0627931	1.4931518	-0.023057308	0.9553224	1.1082952	-0.23619304	0.97139615	1.1345872	0.25575777	1.0637358	0.87034298	-0.28768173	1.0959204	0.89105983	0.27764263
386	1.54	1.0396126	0.13760018	-0.13284691	1.1057529	0.039594045	0.0068477985	0.94634004	0.2569503	-0.15955229	0.964714	0.068451777	0.054564775	0.97368192	0.24446954	-0.064259425	0.97400027	0.10772563	-0.037584943	0.86396872	0.2642276	-0.10859975	0.88974418	0.053853656	0.012099117	1.2383071	0.53882262	-0.17479598	1.1122302	0.50225704	0.10802332	1.24411	0.52829317	-0.049082257	1.0800121	0.49489913	-0.014452975	1.0352932	0.89708594	-0.19278365	1.0474836	0.90647245	0.18101653	1.1114098	0.98306672	-0.13715359	1.1313043	0.98992933	0.10187963	0.96010609	1.0481838	-0.0076963245	1.1302682	1.4348881	-0.19299452	1.1395111	1.450744	0.13845274	1.067047	1.4943011	-0.023377136	0.95956191	1.1095206	-0.23641573	0.97650648	1.1351933	0.25537096	1.0675363	0.87150159	-0.28839331	1.1023688	0.89224785	0.27649476
387	1.544	1.0569181	0.13567323	-0.1332955	1.1058247	0.039589107	0.0068560099	0.96056269	0.2524653	-0.16029208	0.96492458	0.069113718	0.054436838	0.98801845	0.24063184	-0.064973019	0.97428708	0.10840611	-0.037759435	0.87802115	0.25767386	-0.10970936	0.88994298	0.054840223	0.011814073	1.2462082	0.54123723	-0.17489879	1.1137861	0.5024509	0.10841859	1.2519933	0.53094126	-0.049197031	1.0816422	0.49529738	-0.014418154	1.0409026	0.8984267	-0.19333963	1.0516416	0.90739084	0.18063483	1.1165579	0.98443879	-0.13731761	1.135996	0.99092795	0.10173493	0.96499834	1.0491715	-0.0083025141	1.1344819	1.4360187	-0.19333397	1.1437531	1.451907	0.13812085	1.0713107	1.4953986	-0.023705147	0.96382494	1.1107066	-0.23667528	0.98161241	1.135744	0.254982	1.0713612	0.87260185	-0.28909909	1.1087293	0.89336671	0.27537238
388	1.548	1.074284	0.13372532	-0.13365907	1.1058473	0.039641426	0.0068992974	0.97491204	0.247859	-0.16100786	0.96513351	0.069751467	0.054311769	1.0024566	0.23670395	-0.065642255	0.97463075	0.10905017	-0.037945384	0.89223399	0.25098651	-0.11082388	0.89015808	0.05584431	0.011560007	1.2540064	0.54349874	-0.17499081	1.1154425	0.50263228	0.10877937	1.2596371	0.53344422	-0.049330486	1.0833301	0.49565829	-0.014393431	1.046539	0.89972213	-0.19389073	1.0557696	0.90826522	0.18026034	1.1217177	0.98575749	-0.13748287	1.1406822	0.99188041	0.10159108	0.96988274	1.0501052	-0.0089055121	1.1387036	1.437096	-0.19367199	1.1479639	1.4530209	0.13779753	1.0755867	1.4964402	-0.024036417	0.96810782	1.1118574	-0.23696747	0.98671737	1.1362377	0.25459111	1.0752064	0.87364458	-0.28979855	1.1150099	0.89442186	0.27427721
389	1.552	1.0917081	0.13176957	-0.13393709	1.1058816	0.039739237	0.0069507279	0.98939207	0.24314185	-0.16168716	0.96533507	0.070359778	0.054196806	1.0169689	0.23270209	-0.066250393	0.97505657	0.10966443	-0.03810474	0.9065923	0.24417442	-0.1118844	0.89038286	0.056807913	0.011312558	1.2617612	0.54560137	-0.17505017	1.1171687	0.50280953	0.10909801	1.2670281	0.53579373	-0.04948202	1.0850675	0.49598097	-0.014390449	1.0521876	0.90097583	-0.19443703	1.0599682	0.90910776	0.17988924	1.1268861	0.98702199	-0.13764255	1.1453639	0.99278421	0.10145196	0.97474598	1.0509679	-0.0094636525	1.1429349	1.4381218	-0.1940059	1.1521604	1.4540821	0.13747621	1.0798532	1.497428	-0.0243678	0.97241255	1.1129596	-0.23727464	0.99182071	1.1366729	0.25419686	1.0790713	0.87462827	-0.29048984	1.1212511	0.89542455	0.27319502
390	1.556	1.109197	0.12981375	-0.1341228	1.1059685	0.0398486	0.0069961947	1.0040047	0.23831953	-0.16231738	0.96552126	0.070944052	0.054092757	1.0315303	0.22864255	-0.066785225	0.97549876	0.11023688	-0.038255275	0.92109106	0.23724214	-0.11284159	0.89059277	0.057716775	0.011043821	1.2694772	0.54755307	-0.17508038	1.1188572	0.50298477	0.10936719	1.2741947	0.53798537	-0.049649734	1.0868014	0.49626891	-0.014426189	1.0578393	0.90218717	-0.19497856	1.064294	0.90991363	0.17951595	1.1320651	0.988227	-0.13779217	1.1500445	0.99363631	0.10131921	0.97958558	1.051759	-0.0099752086	1.1471816	1.439095	-0.19433112	1.1563562	1.4550851	0.13715311	1.0840781	1.4983719	-0.02470593	0.97674981	1.1139951	-0.23758354	0.99690706	1.1370495	0.25379439	1.0829614	0.87555034	-0.2911705	1.127491	0.89638266	0.27211053
391	1.56	1.1267485	0.12787076	-0.13421554	1.1061179	0.039946518	0.0070495819	1.0187536	0.23339982	-0.16289585	0.96569377	0.071514529	0.053981791	1.0461537	0.22453023	-0.06725509	0.97588307	0.11074468	-0.038432162	0.93574246	0.23019141	-0.11368832	0.89075644	0.058594916	0.010719763	1.2770639	0.54936783	-0.17511295	1.1204133	0.5031565	0.10958327	1.2811761	0.54002026	-0.049838253	1.0884778	0.49653227	-0.014501745	1.0634831	0.90334908	-0.19550985	1.0686871	0.91065882	0.1791388	1.1372621	0.98936253	-0.13793327	1.1547318	0.99443385	0.10119075	0.98440985	1.0524853	-0.010458816	1.1514455	1.4400132	-0.19464626	1.160551	1.4560251	0.13683257	1.0882438	1.499279	-0.025064317	0.98112338	1.114957	-0.23789472	1.0019326	1.1373691	0.25337045	1.0868831	0.87641166	-0.29184392	1.1337514	0.89729728	0.27101571
392	1.564	1.1443509	0.12596119	-0.13422311	1.1063188	0.040029041	0.0071276504	1.03364	0.22839638	-0.16342646	0.96585769	0.072076876	0.053839361	1.0608885	0.22035613	-0.067684686	0.97619111	0.11118204	-0.038650527	0.95056953	0.22303178	-0.11444294	0.89084293	0.059478009	0.010304684	1.2844183	0.55105428	-0.17518267	1.1218291	0.50332733	0.10974572	1.2880076	0.54190548	-0.050050322	1.090092	0.49678565	-0.014587277	1.0691035	0.90445044	-0.19602118	1.0730019	0.91131438	0.17875958	1.1424856	0.99042241	-0.13807145	1.1594357	0.99517338	0.10106438	0.98922785	1.0531438	-0.010931825	1.155723	1.4408735	-0.19495078	1.1647395	1.4568997	0.13652448	1.0923651	1.5001358	-0.025450471	0.98552695	1.115848	-0.23821534	1.0068363	1.1376336	0.25290396	1.0908381	0.87721451	-0.2925135	1.1400421	0.89816706	0.26990636
393	1.568	1.161998	0.12410577	-0.13415802	1.1065165	0.040091457	0.007204943	1.0486538	0.22332617	-0.16390694	0.96600552	0.072629949	0.053659675	1.0757776	0.21611555	-0.068091215	0.97648051	0.11158457	-0.038888251	0.96559192	0.21577951	-0.11511618	0.89085193	0.060382001	0.0098083658	1.291518	0.55261078	-0.17530408	1.1231452	0.50350432	0.10985694	1.2947196	0.54364149	-0.050279548	1.0916761	0.49704506	-0.014640674	1.0746904	0.90548089	-0.19650768	1.0771421	0.91187164	0.17838028	1.1477362	0.99140801	-0.13821031	1.1641617	0.99585076	0.10093802	0.99403786	1.0537195	-0.011406391	1.1600104	1.4416736	-0.19524382	1.1689226	1.4577091	0.13623398	1.0964749	1.5009129	-0.025857305	0.98995452	1.1166705	-0.23854802	1.011607	1.1378439	0.25238819	1.0948233	0.87795751	-0.29317375	1.1463555	0.89899231	0.26878515
394	1.572	1.1797029	0.12231154	-0.13403609	1.1066209	0.040120192	0.0072220513	1.063771	0.21820622	-0.16432181	0.96612893	0.0731681	0.053457334	1.0908405	0.2118231	-0.068474509	0.97683073	0.11201647	-0.039105059	0.98082074	0.20844919	-0.11570329	0.8908391	0.06128229	0.0093093545	1.2984003	0.55402881	-0.17547148	1.1244069	0.50368582	0.10992814	1.3013547	0.54521767	-0.050511615	1.0932347	0.49732943	-0.014651299	1.080247	0.9064346	-0.19697296	1.0811679	0.91235658	0.17800264	1.1529958	0.99232342	-0.13834668	1.1689065	0.99646253	0.10080723	0.99881286	1.0541997	-0.011882885	1.164305	1.4424144	-0.19552646	1.1731045	1.4584568	0.13595568	1.1005982	1.5015942	-0.026261846	0.99440342	1.1174274	-0.23889123	1.016334	1.1380002	0.25185221	1.0988368	0.87863852	-0.29381855	1.1526584	0.89977212	0.26766541
